<mxfile host="app.diagrams.net" agent="Mozilla/5.0 (Windows NT 10.0; Win64; x64; rv:135.0) Gecko/20100101 Firefox/135.0" version="26.1.0">
  <diagram name="Page-1" id="HvvUUItB3kNVH_Ng4qEk">
    <mxGraphModel dx="840" dy="452" grid="1" gridSize="10" guides="1" tooltips="1" connect="1" arrows="1" fold="1" page="1" pageScale="1" pageWidth="850" pageHeight="1100" math="0" shadow="0">
      <root>
        <mxCell id="0" />
        <mxCell id="1" parent="0" />
        <mxCell id="uo-10ayTKZHPtu82tJUw-8" value="&lt;b&gt;Basic diff format&lt;/b&gt;" style="rounded=1;whiteSpace=wrap;html=1;verticalAlign=top;" parent="1" vertex="1">
          <mxGeometry x="120" y="40" width="610" height="380" as="geometry" />
        </mxCell>
        <mxCell id="uo-10ayTKZHPtu82tJUw-9" value="&lt;b&gt;2-line/block diff format&lt;/b&gt;" style="rounded=1;whiteSpace=wrap;html=1;verticalAlign=top;" parent="1" vertex="1">
          <mxGeometry x="110" y="520" width="610" height="800" as="geometry" />
        </mxCell>
        <mxCell id="uo-10ayTKZHPtu82tJUw-11" value="" style="line;strokeWidth=2;html=1;" parent="1" vertex="1">
          <mxGeometry x="205" y="240" width="440" height="10" as="geometry" />
        </mxCell>
        <mxCell id="uo-10ayTKZHPtu82tJUw-25" value="" style="line;strokeWidth=2;html=1;" parent="1" vertex="1">
          <mxGeometry x="175" y="781" width="440" height="10" as="geometry" />
        </mxCell>
        <mxCell id="uo-10ayTKZHPtu82tJUw-32" value="" style="line;strokeWidth=2;html=1;" parent="1" vertex="1">
          <mxGeometry x="175" y="1062" width="440" height="10" as="geometry" />
        </mxCell>
        <mxCell id="uo-10ayTKZHPtu82tJUw-51" value="&lt;b&gt;3-line/block diff format&lt;/b&gt;" style="rounded=1;whiteSpace=wrap;html=1;verticalAlign=top;" parent="1" vertex="1">
          <mxGeometry x="125" y="1480" width="610" height="1290" as="geometry" />
        </mxCell>
        <mxCell id="uo-10ayTKZHPtu82tJUw-60" value="" style="line;strokeWidth=2;html=1;" parent="1" vertex="1">
          <mxGeometry x="210" y="1804" width="440" height="10" as="geometry" />
        </mxCell>
        <mxCell id="uo-10ayTKZHPtu82tJUw-64" value="" style="line;strokeWidth=2;html=1;" parent="1" vertex="1">
          <mxGeometry x="210" y="2407" width="440" height="10" as="geometry" />
        </mxCell>
        <mxCell id="uo-10ayTKZHPtu82tJUw-92" value="" style="line;strokeWidth=2;html=1;" parent="1" vertex="1">
          <mxGeometry x="210" y="2106" width="440" height="10" as="geometry" />
        </mxCell>
        <mxCell id="uo-10ayTKZHPtu82tJUw-101" value="" style="group" parent="1" vertex="1" connectable="0">
          <mxGeometry x="230" y="120" width="390" height="80" as="geometry" />
        </mxCell>
        <mxCell id="uo-10ayTKZHPtu82tJUw-4" style="edgeStyle=orthogonalEdgeStyle;rounded=0;orthogonalLoop=1;jettySize=auto;html=1;exitX=1;exitY=0.5;exitDx=0;exitDy=0;entryX=0;entryY=0.5;entryDx=0;entryDy=0;" parent="uo-10ayTKZHPtu82tJUw-101" source="uo-10ayTKZHPtu82tJUw-1" target="uo-10ayTKZHPtu82tJUw-2" edge="1">
          <mxGeometry relative="1" as="geometry" />
        </mxCell>
        <mxCell id="uo-10ayTKZHPtu82tJUw-22" value="Added" style="edgeLabel;html=1;align=center;verticalAlign=middle;resizable=0;points=[];" parent="uo-10ayTKZHPtu82tJUw-4" vertex="1" connectable="0">
          <mxGeometry x="-0.087" y="-2" relative="1" as="geometry">
            <mxPoint x="15" y="-12" as="offset" />
          </mxGeometry>
        </mxCell>
        <mxCell id="uo-10ayTKZHPtu82tJUw-1" value="" style="ellipse;whiteSpace=wrap;html=1;aspect=fixed;dashed=1;dashPattern=8 8;" parent="uo-10ayTKZHPtu82tJUw-101" vertex="1">
          <mxGeometry width="80" height="80" as="geometry" />
        </mxCell>
        <mxCell id="uo-10ayTKZHPtu82tJUw-2" value="" style="ellipse;whiteSpace=wrap;html=1;aspect=fixed;fillColor=#d5e8d4;strokeColor=#82b366;strokeWidth=3;" parent="uo-10ayTKZHPtu82tJUw-101" vertex="1">
          <mxGeometry x="310" width="80" height="80" as="geometry" />
        </mxCell>
        <mxCell id="uo-10ayTKZHPtu82tJUw-102" value="" style="group" parent="1" vertex="1" connectable="0">
          <mxGeometry x="230" y="290" width="390" height="80" as="geometry" />
        </mxCell>
        <mxCell id="uo-10ayTKZHPtu82tJUw-19" style="edgeStyle=orthogonalEdgeStyle;rounded=0;orthogonalLoop=1;jettySize=auto;html=1;exitX=1;exitY=0.5;exitDx=0;exitDy=0;entryX=0;entryY=0.5;entryDx=0;entryDy=0;" parent="uo-10ayTKZHPtu82tJUw-102" source="uo-10ayTKZHPtu82tJUw-20" target="uo-10ayTKZHPtu82tJUw-21" edge="1">
          <mxGeometry relative="1" as="geometry" />
        </mxCell>
        <mxCell id="uo-10ayTKZHPtu82tJUw-23" value="Deleted" style="edgeLabel;html=1;align=center;verticalAlign=middle;resizable=0;points=[];" parent="uo-10ayTKZHPtu82tJUw-19" vertex="1" connectable="0">
          <mxGeometry x="-0.0196" y="-4" relative="1" as="geometry">
            <mxPoint x="2" y="-14" as="offset" />
          </mxGeometry>
        </mxCell>
        <mxCell id="uo-10ayTKZHPtu82tJUw-20" value="" style="ellipse;whiteSpace=wrap;html=1;aspect=fixed;strokeWidth=3;" parent="uo-10ayTKZHPtu82tJUw-102" vertex="1">
          <mxGeometry width="80" height="80" as="geometry" />
        </mxCell>
        <mxCell id="uo-10ayTKZHPtu82tJUw-21" value="" style="ellipse;whiteSpace=wrap;html=1;aspect=fixed;fillColor=#f8cecc;strokeColor=#b85450;strokeWidth=1;dashed=1;dashPattern=8 8;" parent="uo-10ayTKZHPtu82tJUw-102" vertex="1">
          <mxGeometry x="310" width="80" height="80" as="geometry" />
        </mxCell>
        <mxCell id="uo-10ayTKZHPtu82tJUw-103" value="" style="group" parent="1" vertex="1" connectable="0">
          <mxGeometry x="200" y="570" width="390" height="80" as="geometry" />
        </mxCell>
        <mxCell id="uo-10ayTKZHPtu82tJUw-12" value="" style="ellipse;whiteSpace=wrap;html=1;aspect=fixed;dashed=1;dashPattern=8 8;" parent="uo-10ayTKZHPtu82tJUw-103" vertex="1">
          <mxGeometry width="80" height="80" as="geometry" />
        </mxCell>
        <mxCell id="uo-10ayTKZHPtu82tJUw-14" value="" style="ellipse;whiteSpace=wrap;html=1;aspect=fixed;fillColor=#d5e8d4;strokeColor=#82b366;strokeWidth=3;" parent="uo-10ayTKZHPtu82tJUw-103" vertex="1">
          <mxGeometry x="310" width="80" height="80" as="geometry" />
        </mxCell>
        <mxCell id="uo-10ayTKZHPtu82tJUw-13" style="edgeStyle=orthogonalEdgeStyle;rounded=0;orthogonalLoop=1;jettySize=auto;html=1;exitX=1;exitY=0.5;exitDx=0;exitDy=0;entryX=0;entryY=0.5;entryDx=0;entryDy=0;" parent="uo-10ayTKZHPtu82tJUw-103" source="uo-10ayTKZHPtu82tJUw-12" target="uo-10ayTKZHPtu82tJUw-14" edge="1">
          <mxGeometry relative="1" as="geometry" />
        </mxCell>
        <mxCell id="uo-10ayTKZHPtu82tJUw-49" value="Added" style="edgeLabel;html=1;align=center;verticalAlign=middle;resizable=0;points=[];" parent="uo-10ayTKZHPtu82tJUw-13" vertex="1" connectable="0">
          <mxGeometry x="-0.029" y="5" relative="1" as="geometry">
            <mxPoint x="13" y="-5" as="offset" />
          </mxGeometry>
        </mxCell>
        <mxCell id="uo-10ayTKZHPtu82tJUw-104" value="" style="group" parent="1" vertex="1" connectable="0">
          <mxGeometry x="200" y="673" width="390" height="80" as="geometry" />
        </mxCell>
        <mxCell id="uo-10ayTKZHPtu82tJUw-15" value="" style="ellipse;whiteSpace=wrap;html=1;aspect=fixed;dashed=1;dashPattern=8 8;" parent="uo-10ayTKZHPtu82tJUw-104" vertex="1">
          <mxGeometry width="80" height="80" as="geometry" />
        </mxCell>
        <mxCell id="uo-10ayTKZHPtu82tJUw-16" style="edgeStyle=orthogonalEdgeStyle;rounded=0;orthogonalLoop=1;jettySize=auto;html=1;exitX=1;exitY=0.5;exitDx=0;exitDy=0;entryX=0;entryY=0.5;entryDx=0;entryDy=0;" parent="uo-10ayTKZHPtu82tJUw-104" source="uo-10ayTKZHPtu82tJUw-15" target="uo-10ayTKZHPtu82tJUw-17" edge="1">
          <mxGeometry relative="1" as="geometry" />
        </mxCell>
        <mxCell id="uo-10ayTKZHPtu82tJUw-50" value="Added" style="edgeLabel;html=1;align=center;verticalAlign=middle;resizable=0;points=[];" parent="uo-10ayTKZHPtu82tJUw-16" vertex="1" connectable="0">
          <mxGeometry x="0.1211" y="1" relative="1" as="geometry">
            <mxPoint x="-4" y="-9" as="offset" />
          </mxGeometry>
        </mxCell>
        <mxCell id="uo-10ayTKZHPtu82tJUw-17" value="" style="ellipse;whiteSpace=wrap;html=1;aspect=fixed;fillColor=#d5e8d4;strokeColor=#82b366;strokeWidth=3;" parent="uo-10ayTKZHPtu82tJUw-104" vertex="1">
          <mxGeometry x="310" width="80" height="80" as="geometry" />
        </mxCell>
        <mxCell id="uo-10ayTKZHPtu82tJUw-113" value="" style="group" parent="1" vertex="1" connectable="0">
          <mxGeometry x="200" y="845" width="390" height="80" as="geometry" />
        </mxCell>
        <mxCell id="uo-10ayTKZHPtu82tJUw-114" value="" style="ellipse;whiteSpace=wrap;html=1;aspect=fixed;dashed=1;dashPattern=8 8;" parent="uo-10ayTKZHPtu82tJUw-113" vertex="1">
          <mxGeometry width="80" height="80" as="geometry" />
        </mxCell>
        <mxCell id="uo-10ayTKZHPtu82tJUw-115" value="" style="ellipse;whiteSpace=wrap;html=1;aspect=fixed;fillColor=#d5e8d4;strokeColor=#82b366;strokeWidth=3;" parent="uo-10ayTKZHPtu82tJUw-113" vertex="1">
          <mxGeometry x="310" width="80" height="80" as="geometry" />
        </mxCell>
        <mxCell id="uo-10ayTKZHPtu82tJUw-116" style="edgeStyle=orthogonalEdgeStyle;rounded=0;orthogonalLoop=1;jettySize=auto;html=1;exitX=1;exitY=0.5;exitDx=0;exitDy=0;entryX=0;entryY=0.5;entryDx=0;entryDy=0;" parent="uo-10ayTKZHPtu82tJUw-113" source="uo-10ayTKZHPtu82tJUw-114" target="uo-10ayTKZHPtu82tJUw-115" edge="1">
          <mxGeometry relative="1" as="geometry" />
        </mxCell>
        <mxCell id="uo-10ayTKZHPtu82tJUw-117" value="Added" style="edgeLabel;html=1;align=center;verticalAlign=middle;resizable=0;points=[];" parent="uo-10ayTKZHPtu82tJUw-116" vertex="1" connectable="0">
          <mxGeometry x="-0.029" y="5" relative="1" as="geometry">
            <mxPoint x="13" y="-5" as="offset" />
          </mxGeometry>
        </mxCell>
        <mxCell id="uo-10ayTKZHPtu82tJUw-118" value="" style="group" parent="1" vertex="1" connectable="0">
          <mxGeometry x="200" y="953" width="390" height="80" as="geometry" />
        </mxCell>
        <mxCell id="uo-10ayTKZHPtu82tJUw-119" style="edgeStyle=orthogonalEdgeStyle;rounded=0;orthogonalLoop=1;jettySize=auto;html=1;exitX=1;exitY=0.5;exitDx=0;exitDy=0;entryX=0;entryY=0.5;entryDx=0;entryDy=0;" parent="uo-10ayTKZHPtu82tJUw-118" source="uo-10ayTKZHPtu82tJUw-121" target="uo-10ayTKZHPtu82tJUw-122" edge="1">
          <mxGeometry relative="1" as="geometry" />
        </mxCell>
        <mxCell id="uo-10ayTKZHPtu82tJUw-120" value="Deleted" style="edgeLabel;html=1;align=center;verticalAlign=middle;resizable=0;points=[];" parent="uo-10ayTKZHPtu82tJUw-119" vertex="1" connectable="0">
          <mxGeometry x="-0.0196" y="-4" relative="1" as="geometry">
            <mxPoint x="2" y="-14" as="offset" />
          </mxGeometry>
        </mxCell>
        <mxCell id="uo-10ayTKZHPtu82tJUw-121" value="" style="ellipse;whiteSpace=wrap;html=1;aspect=fixed;strokeWidth=3;" parent="uo-10ayTKZHPtu82tJUw-118" vertex="1">
          <mxGeometry width="80" height="80" as="geometry" />
        </mxCell>
        <mxCell id="uo-10ayTKZHPtu82tJUw-122" value="" style="ellipse;whiteSpace=wrap;html=1;aspect=fixed;fillColor=#f8cecc;strokeColor=#b85450;strokeWidth=1;dashed=1;dashPattern=8 8;" parent="uo-10ayTKZHPtu82tJUw-118" vertex="1">
          <mxGeometry x="310" width="80" height="80" as="geometry" />
        </mxCell>
        <mxCell id="uo-10ayTKZHPtu82tJUw-123" value="" style="group" parent="1" vertex="1" connectable="0">
          <mxGeometry x="200" y="1100" width="390" height="80" as="geometry" />
        </mxCell>
        <mxCell id="uo-10ayTKZHPtu82tJUw-124" style="edgeStyle=orthogonalEdgeStyle;rounded=0;orthogonalLoop=1;jettySize=auto;html=1;exitX=1;exitY=0.5;exitDx=0;exitDy=0;entryX=0;entryY=0.5;entryDx=0;entryDy=0;" parent="uo-10ayTKZHPtu82tJUw-123" source="uo-10ayTKZHPtu82tJUw-126" target="uo-10ayTKZHPtu82tJUw-127" edge="1">
          <mxGeometry relative="1" as="geometry" />
        </mxCell>
        <mxCell id="uo-10ayTKZHPtu82tJUw-125" value="Deleted" style="edgeLabel;html=1;align=center;verticalAlign=middle;resizable=0;points=[];" parent="uo-10ayTKZHPtu82tJUw-124" vertex="1" connectable="0">
          <mxGeometry x="-0.0196" y="-4" relative="1" as="geometry">
            <mxPoint x="2" y="-14" as="offset" />
          </mxGeometry>
        </mxCell>
        <mxCell id="uo-10ayTKZHPtu82tJUw-126" value="" style="ellipse;whiteSpace=wrap;html=1;aspect=fixed;strokeWidth=3;" parent="uo-10ayTKZHPtu82tJUw-123" vertex="1">
          <mxGeometry width="80" height="80" as="geometry" />
        </mxCell>
        <mxCell id="uo-10ayTKZHPtu82tJUw-127" value="" style="ellipse;whiteSpace=wrap;html=1;aspect=fixed;fillColor=#f8cecc;strokeColor=#b85450;strokeWidth=1;dashed=1;dashPattern=8 8;" parent="uo-10ayTKZHPtu82tJUw-123" vertex="1">
          <mxGeometry x="310" width="80" height="80" as="geometry" />
        </mxCell>
        <mxCell id="uo-10ayTKZHPtu82tJUw-128" value="" style="group" parent="1" vertex="1" connectable="0">
          <mxGeometry x="200" y="1200" width="390" height="80" as="geometry" />
        </mxCell>
        <mxCell id="uo-10ayTKZHPtu82tJUw-129" style="edgeStyle=orthogonalEdgeStyle;rounded=0;orthogonalLoop=1;jettySize=auto;html=1;exitX=1;exitY=0.5;exitDx=0;exitDy=0;entryX=0;entryY=0.5;entryDx=0;entryDy=0;" parent="uo-10ayTKZHPtu82tJUw-128" source="uo-10ayTKZHPtu82tJUw-131" target="uo-10ayTKZHPtu82tJUw-132" edge="1">
          <mxGeometry relative="1" as="geometry" />
        </mxCell>
        <mxCell id="uo-10ayTKZHPtu82tJUw-130" value="Deleted" style="edgeLabel;html=1;align=center;verticalAlign=middle;resizable=0;points=[];" parent="uo-10ayTKZHPtu82tJUw-129" vertex="1" connectable="0">
          <mxGeometry x="-0.0196" y="-4" relative="1" as="geometry">
            <mxPoint x="2" y="-14" as="offset" />
          </mxGeometry>
        </mxCell>
        <mxCell id="uo-10ayTKZHPtu82tJUw-131" value="" style="ellipse;whiteSpace=wrap;html=1;aspect=fixed;strokeWidth=3;" parent="uo-10ayTKZHPtu82tJUw-128" vertex="1">
          <mxGeometry width="80" height="80" as="geometry" />
        </mxCell>
        <mxCell id="uo-10ayTKZHPtu82tJUw-132" value="" style="ellipse;whiteSpace=wrap;html=1;aspect=fixed;fillColor=#f8cecc;strokeColor=#b85450;strokeWidth=1;dashed=1;dashPattern=8 8;" parent="uo-10ayTKZHPtu82tJUw-128" vertex="1">
          <mxGeometry x="310" width="80" height="80" as="geometry" />
        </mxCell>
        <mxCell id="uo-10ayTKZHPtu82tJUw-133" value="" style="group" parent="1" vertex="1" connectable="0">
          <mxGeometry x="235" y="1530" width="390" height="80" as="geometry" />
        </mxCell>
        <mxCell id="uo-10ayTKZHPtu82tJUw-134" value="" style="ellipse;whiteSpace=wrap;html=1;aspect=fixed;dashed=1;dashPattern=8 8;" parent="uo-10ayTKZHPtu82tJUw-133" vertex="1">
          <mxGeometry width="80" height="80" as="geometry" />
        </mxCell>
        <mxCell id="uo-10ayTKZHPtu82tJUw-135" style="edgeStyle=orthogonalEdgeStyle;rounded=0;orthogonalLoop=1;jettySize=auto;html=1;exitX=1;exitY=0.5;exitDx=0;exitDy=0;entryX=0;entryY=0.5;entryDx=0;entryDy=0;" parent="uo-10ayTKZHPtu82tJUw-133" source="uo-10ayTKZHPtu82tJUw-134" target="uo-10ayTKZHPtu82tJUw-137" edge="1">
          <mxGeometry relative="1" as="geometry" />
        </mxCell>
        <mxCell id="uo-10ayTKZHPtu82tJUw-136" value="Added" style="edgeLabel;html=1;align=center;verticalAlign=middle;resizable=0;points=[];" parent="uo-10ayTKZHPtu82tJUw-135" vertex="1" connectable="0">
          <mxGeometry x="0.1211" y="1" relative="1" as="geometry">
            <mxPoint x="-4" y="-9" as="offset" />
          </mxGeometry>
        </mxCell>
        <mxCell id="uo-10ayTKZHPtu82tJUw-137" value="" style="ellipse;whiteSpace=wrap;html=1;aspect=fixed;fillColor=#d5e8d4;strokeColor=#82b366;strokeWidth=3;" parent="uo-10ayTKZHPtu82tJUw-133" vertex="1">
          <mxGeometry x="310" width="80" height="80" as="geometry" />
        </mxCell>
        <mxCell id="uo-10ayTKZHPtu82tJUw-138" value="" style="group" parent="1" vertex="1" connectable="0">
          <mxGeometry x="235" y="1631" width="390" height="80" as="geometry" />
        </mxCell>
        <mxCell id="uo-10ayTKZHPtu82tJUw-139" value="" style="ellipse;whiteSpace=wrap;html=1;aspect=fixed;dashed=1;dashPattern=8 8;" parent="uo-10ayTKZHPtu82tJUw-138" vertex="1">
          <mxGeometry width="80" height="80" as="geometry" />
        </mxCell>
        <mxCell id="uo-10ayTKZHPtu82tJUw-140" style="edgeStyle=orthogonalEdgeStyle;rounded=0;orthogonalLoop=1;jettySize=auto;html=1;exitX=1;exitY=0.5;exitDx=0;exitDy=0;entryX=0;entryY=0.5;entryDx=0;entryDy=0;" parent="uo-10ayTKZHPtu82tJUw-138" source="uo-10ayTKZHPtu82tJUw-139" target="uo-10ayTKZHPtu82tJUw-142" edge="1">
          <mxGeometry relative="1" as="geometry" />
        </mxCell>
        <mxCell id="uo-10ayTKZHPtu82tJUw-141" value="Added" style="edgeLabel;html=1;align=center;verticalAlign=middle;resizable=0;points=[];" parent="uo-10ayTKZHPtu82tJUw-140" vertex="1" connectable="0">
          <mxGeometry x="0.1211" y="1" relative="1" as="geometry">
            <mxPoint x="-4" y="-9" as="offset" />
          </mxGeometry>
        </mxCell>
        <mxCell id="uo-10ayTKZHPtu82tJUw-142" value="" style="ellipse;whiteSpace=wrap;html=1;aspect=fixed;fillColor=#d5e8d4;strokeColor=#82b366;strokeWidth=3;" parent="uo-10ayTKZHPtu82tJUw-138" vertex="1">
          <mxGeometry x="310" width="80" height="80" as="geometry" />
        </mxCell>
        <mxCell id="uo-10ayTKZHPtu82tJUw-143" value="" style="group" parent="1" vertex="1" connectable="0">
          <mxGeometry x="235" y="1717" width="390" height="80" as="geometry" />
        </mxCell>
        <mxCell id="uo-10ayTKZHPtu82tJUw-144" value="" style="ellipse;whiteSpace=wrap;html=1;aspect=fixed;dashed=1;dashPattern=8 8;" parent="uo-10ayTKZHPtu82tJUw-143" vertex="1">
          <mxGeometry width="80" height="80" as="geometry" />
        </mxCell>
        <mxCell id="uo-10ayTKZHPtu82tJUw-145" style="edgeStyle=orthogonalEdgeStyle;rounded=0;orthogonalLoop=1;jettySize=auto;html=1;exitX=1;exitY=0.5;exitDx=0;exitDy=0;entryX=0;entryY=0.5;entryDx=0;entryDy=0;" parent="uo-10ayTKZHPtu82tJUw-143" source="uo-10ayTKZHPtu82tJUw-144" target="uo-10ayTKZHPtu82tJUw-147" edge="1">
          <mxGeometry relative="1" as="geometry" />
        </mxCell>
        <mxCell id="uo-10ayTKZHPtu82tJUw-146" value="Added" style="edgeLabel;html=1;align=center;verticalAlign=middle;resizable=0;points=[];" parent="uo-10ayTKZHPtu82tJUw-145" vertex="1" connectable="0">
          <mxGeometry x="0.1211" y="1" relative="1" as="geometry">
            <mxPoint x="-4" y="-9" as="offset" />
          </mxGeometry>
        </mxCell>
        <mxCell id="uo-10ayTKZHPtu82tJUw-147" value="" style="ellipse;whiteSpace=wrap;html=1;aspect=fixed;fillColor=#d5e8d4;strokeColor=#82b366;strokeWidth=3;" parent="uo-10ayTKZHPtu82tJUw-143" vertex="1">
          <mxGeometry x="310" width="80" height="80" as="geometry" />
        </mxCell>
        <mxCell id="uo-10ayTKZHPtu82tJUw-148" value="" style="group" parent="1" vertex="1" connectable="0">
          <mxGeometry x="235" y="1845" width="390" height="80" as="geometry" />
        </mxCell>
        <mxCell id="uo-10ayTKZHPtu82tJUw-149" value="" style="ellipse;whiteSpace=wrap;html=1;aspect=fixed;dashed=1;dashPattern=8 8;" parent="uo-10ayTKZHPtu82tJUw-148" vertex="1">
          <mxGeometry width="80" height="80" as="geometry" />
        </mxCell>
        <mxCell id="uo-10ayTKZHPtu82tJUw-150" style="edgeStyle=orthogonalEdgeStyle;rounded=0;orthogonalLoop=1;jettySize=auto;html=1;exitX=1;exitY=0.5;exitDx=0;exitDy=0;entryX=0;entryY=0.5;entryDx=0;entryDy=0;" parent="uo-10ayTKZHPtu82tJUw-148" source="uo-10ayTKZHPtu82tJUw-149" target="uo-10ayTKZHPtu82tJUw-152" edge="1">
          <mxGeometry relative="1" as="geometry" />
        </mxCell>
        <mxCell id="uo-10ayTKZHPtu82tJUw-151" value="Added" style="edgeLabel;html=1;align=center;verticalAlign=middle;resizable=0;points=[];" parent="uo-10ayTKZHPtu82tJUw-150" vertex="1" connectable="0">
          <mxGeometry x="0.1211" y="1" relative="1" as="geometry">
            <mxPoint x="-4" y="-9" as="offset" />
          </mxGeometry>
        </mxCell>
        <mxCell id="uo-10ayTKZHPtu82tJUw-152" value="" style="ellipse;whiteSpace=wrap;html=1;aspect=fixed;fillColor=#d5e8d4;strokeColor=#82b366;strokeWidth=3;" parent="uo-10ayTKZHPtu82tJUw-148" vertex="1">
          <mxGeometry x="310" width="80" height="80" as="geometry" />
        </mxCell>
        <mxCell id="uo-10ayTKZHPtu82tJUw-163" value="" style="group" parent="1" vertex="1" connectable="0">
          <mxGeometry x="235" y="1932" width="390" height="80" as="geometry" />
        </mxCell>
        <mxCell id="uo-10ayTKZHPtu82tJUw-164" value="" style="ellipse;whiteSpace=wrap;html=1;aspect=fixed;dashed=1;dashPattern=8 8;" parent="uo-10ayTKZHPtu82tJUw-163" vertex="1">
          <mxGeometry width="80" height="80" as="geometry" />
        </mxCell>
        <mxCell id="uo-10ayTKZHPtu82tJUw-165" style="edgeStyle=orthogonalEdgeStyle;rounded=0;orthogonalLoop=1;jettySize=auto;html=1;exitX=1;exitY=0.5;exitDx=0;exitDy=0;entryX=0;entryY=0.5;entryDx=0;entryDy=0;" parent="uo-10ayTKZHPtu82tJUw-163" source="uo-10ayTKZHPtu82tJUw-164" target="uo-10ayTKZHPtu82tJUw-167" edge="1">
          <mxGeometry relative="1" as="geometry" />
        </mxCell>
        <mxCell id="uo-10ayTKZHPtu82tJUw-166" value="Added" style="edgeLabel;html=1;align=center;verticalAlign=middle;resizable=0;points=[];" parent="uo-10ayTKZHPtu82tJUw-165" vertex="1" connectable="0">
          <mxGeometry x="0.1211" y="1" relative="1" as="geometry">
            <mxPoint x="-4" y="-9" as="offset" />
          </mxGeometry>
        </mxCell>
        <mxCell id="uo-10ayTKZHPtu82tJUw-167" value="" style="ellipse;whiteSpace=wrap;html=1;aspect=fixed;fillColor=#d5e8d4;strokeColor=#82b366;strokeWidth=3;" parent="uo-10ayTKZHPtu82tJUw-163" vertex="1">
          <mxGeometry x="310" width="80" height="80" as="geometry" />
        </mxCell>
        <mxCell id="uo-10ayTKZHPtu82tJUw-168" value="" style="group" parent="1" vertex="1" connectable="0">
          <mxGeometry x="235" y="2147" width="390" height="80" as="geometry" />
        </mxCell>
        <mxCell id="uo-10ayTKZHPtu82tJUw-169" value="" style="ellipse;whiteSpace=wrap;html=1;aspect=fixed;dashed=1;dashPattern=8 8;" parent="uo-10ayTKZHPtu82tJUw-168" vertex="1">
          <mxGeometry width="80" height="80" as="geometry" />
        </mxCell>
        <mxCell id="uo-10ayTKZHPtu82tJUw-170" style="edgeStyle=orthogonalEdgeStyle;rounded=0;orthogonalLoop=1;jettySize=auto;html=1;exitX=1;exitY=0.5;exitDx=0;exitDy=0;entryX=0;entryY=0.5;entryDx=0;entryDy=0;" parent="uo-10ayTKZHPtu82tJUw-168" source="uo-10ayTKZHPtu82tJUw-169" target="uo-10ayTKZHPtu82tJUw-172" edge="1">
          <mxGeometry relative="1" as="geometry" />
        </mxCell>
        <mxCell id="uo-10ayTKZHPtu82tJUw-171" value="Added" style="edgeLabel;html=1;align=center;verticalAlign=middle;resizable=0;points=[];" parent="uo-10ayTKZHPtu82tJUw-170" vertex="1" connectable="0">
          <mxGeometry x="0.1211" y="1" relative="1" as="geometry">
            <mxPoint x="-4" y="-9" as="offset" />
          </mxGeometry>
        </mxCell>
        <mxCell id="uo-10ayTKZHPtu82tJUw-172" value="" style="ellipse;whiteSpace=wrap;html=1;aspect=fixed;fillColor=#d5e8d4;strokeColor=#82b366;strokeWidth=3;" parent="uo-10ayTKZHPtu82tJUw-168" vertex="1">
          <mxGeometry x="310" width="80" height="80" as="geometry" />
        </mxCell>
        <mxCell id="uo-10ayTKZHPtu82tJUw-173" value="" style="group" parent="1" vertex="1" connectable="0">
          <mxGeometry x="235" y="2019" width="390" height="80" as="geometry" />
        </mxCell>
        <mxCell id="uo-10ayTKZHPtu82tJUw-174" style="edgeStyle=orthogonalEdgeStyle;rounded=0;orthogonalLoop=1;jettySize=auto;html=1;exitX=1;exitY=0.5;exitDx=0;exitDy=0;entryX=0;entryY=0.5;entryDx=0;entryDy=0;" parent="uo-10ayTKZHPtu82tJUw-173" source="uo-10ayTKZHPtu82tJUw-176" target="uo-10ayTKZHPtu82tJUw-177" edge="1">
          <mxGeometry relative="1" as="geometry" />
        </mxCell>
        <mxCell id="uo-10ayTKZHPtu82tJUw-175" value="Deleted" style="edgeLabel;html=1;align=center;verticalAlign=middle;resizable=0;points=[];" parent="uo-10ayTKZHPtu82tJUw-174" vertex="1" connectable="0">
          <mxGeometry x="-0.0196" y="-4" relative="1" as="geometry">
            <mxPoint x="2" y="-14" as="offset" />
          </mxGeometry>
        </mxCell>
        <mxCell id="uo-10ayTKZHPtu82tJUw-176" value="" style="ellipse;whiteSpace=wrap;html=1;aspect=fixed;strokeWidth=3;" parent="uo-10ayTKZHPtu82tJUw-173" vertex="1">
          <mxGeometry width="80" height="80" as="geometry" />
        </mxCell>
        <mxCell id="uo-10ayTKZHPtu82tJUw-177" value="" style="ellipse;whiteSpace=wrap;html=1;aspect=fixed;fillColor=#f8cecc;strokeColor=#b85450;strokeWidth=1;dashed=1;dashPattern=8 8;" parent="uo-10ayTKZHPtu82tJUw-173" vertex="1">
          <mxGeometry x="310" width="80" height="80" as="geometry" />
        </mxCell>
        <mxCell id="uo-10ayTKZHPtu82tJUw-178" value="" style="group" parent="1" vertex="1" connectable="0">
          <mxGeometry x="235" y="2234" width="390" height="80" as="geometry" />
        </mxCell>
        <mxCell id="uo-10ayTKZHPtu82tJUw-179" style="edgeStyle=orthogonalEdgeStyle;rounded=0;orthogonalLoop=1;jettySize=auto;html=1;exitX=1;exitY=0.5;exitDx=0;exitDy=0;entryX=0;entryY=0.5;entryDx=0;entryDy=0;" parent="uo-10ayTKZHPtu82tJUw-178" source="uo-10ayTKZHPtu82tJUw-181" target="uo-10ayTKZHPtu82tJUw-182" edge="1">
          <mxGeometry relative="1" as="geometry" />
        </mxCell>
        <mxCell id="uo-10ayTKZHPtu82tJUw-180" value="Deleted" style="edgeLabel;html=1;align=center;verticalAlign=middle;resizable=0;points=[];" parent="uo-10ayTKZHPtu82tJUw-179" vertex="1" connectable="0">
          <mxGeometry x="-0.0196" y="-4" relative="1" as="geometry">
            <mxPoint x="2" y="-14" as="offset" />
          </mxGeometry>
        </mxCell>
        <mxCell id="uo-10ayTKZHPtu82tJUw-181" value="" style="ellipse;whiteSpace=wrap;html=1;aspect=fixed;strokeWidth=3;" parent="uo-10ayTKZHPtu82tJUw-178" vertex="1">
          <mxGeometry width="80" height="80" as="geometry" />
        </mxCell>
        <mxCell id="uo-10ayTKZHPtu82tJUw-182" value="" style="ellipse;whiteSpace=wrap;html=1;aspect=fixed;fillColor=#f8cecc;strokeColor=#b85450;strokeWidth=1;dashed=1;dashPattern=8 8;" parent="uo-10ayTKZHPtu82tJUw-178" vertex="1">
          <mxGeometry x="310" width="80" height="80" as="geometry" />
        </mxCell>
        <mxCell id="uo-10ayTKZHPtu82tJUw-198" value="" style="group" parent="1" vertex="1" connectable="0">
          <mxGeometry x="235" y="2320" width="390" height="80" as="geometry" />
        </mxCell>
        <mxCell id="uo-10ayTKZHPtu82tJUw-199" style="edgeStyle=orthogonalEdgeStyle;rounded=0;orthogonalLoop=1;jettySize=auto;html=1;exitX=1;exitY=0.5;exitDx=0;exitDy=0;entryX=0;entryY=0.5;entryDx=0;entryDy=0;" parent="uo-10ayTKZHPtu82tJUw-198" source="uo-10ayTKZHPtu82tJUw-201" target="uo-10ayTKZHPtu82tJUw-202" edge="1">
          <mxGeometry relative="1" as="geometry" />
        </mxCell>
        <mxCell id="uo-10ayTKZHPtu82tJUw-200" value="Deleted" style="edgeLabel;html=1;align=center;verticalAlign=middle;resizable=0;points=[];" parent="uo-10ayTKZHPtu82tJUw-199" vertex="1" connectable="0">
          <mxGeometry x="-0.0196" y="-4" relative="1" as="geometry">
            <mxPoint x="2" y="-14" as="offset" />
          </mxGeometry>
        </mxCell>
        <mxCell id="uo-10ayTKZHPtu82tJUw-201" value="" style="ellipse;whiteSpace=wrap;html=1;aspect=fixed;strokeWidth=3;" parent="uo-10ayTKZHPtu82tJUw-198" vertex="1">
          <mxGeometry width="80" height="80" as="geometry" />
        </mxCell>
        <mxCell id="uo-10ayTKZHPtu82tJUw-202" value="" style="ellipse;whiteSpace=wrap;html=1;aspect=fixed;fillColor=#f8cecc;strokeColor=#b85450;strokeWidth=1;dashed=1;dashPattern=8 8;" parent="uo-10ayTKZHPtu82tJUw-198" vertex="1">
          <mxGeometry x="310" width="80" height="80" as="geometry" />
        </mxCell>
        <mxCell id="uo-10ayTKZHPtu82tJUw-217" value="" style="group" parent="1" vertex="1" connectable="0">
          <mxGeometry x="235" y="2448" width="390" height="80" as="geometry" />
        </mxCell>
        <mxCell id="uo-10ayTKZHPtu82tJUw-218" style="edgeStyle=orthogonalEdgeStyle;rounded=0;orthogonalLoop=1;jettySize=auto;html=1;exitX=1;exitY=0.5;exitDx=0;exitDy=0;entryX=0;entryY=0.5;entryDx=0;entryDy=0;" parent="uo-10ayTKZHPtu82tJUw-217" source="uo-10ayTKZHPtu82tJUw-220" target="uo-10ayTKZHPtu82tJUw-221" edge="1">
          <mxGeometry relative="1" as="geometry" />
        </mxCell>
        <mxCell id="uo-10ayTKZHPtu82tJUw-219" value="Deleted" style="edgeLabel;html=1;align=center;verticalAlign=middle;resizable=0;points=[];" parent="uo-10ayTKZHPtu82tJUw-218" vertex="1" connectable="0">
          <mxGeometry x="-0.0196" y="-4" relative="1" as="geometry">
            <mxPoint x="2" y="-14" as="offset" />
          </mxGeometry>
        </mxCell>
        <mxCell id="uo-10ayTKZHPtu82tJUw-220" value="" style="ellipse;whiteSpace=wrap;html=1;aspect=fixed;strokeWidth=3;" parent="uo-10ayTKZHPtu82tJUw-217" vertex="1">
          <mxGeometry width="80" height="80" as="geometry" />
        </mxCell>
        <mxCell id="uo-10ayTKZHPtu82tJUw-221" value="" style="ellipse;whiteSpace=wrap;html=1;aspect=fixed;fillColor=#f8cecc;strokeColor=#b85450;strokeWidth=1;dashed=1;dashPattern=8 8;" parent="uo-10ayTKZHPtu82tJUw-217" vertex="1">
          <mxGeometry x="310" width="80" height="80" as="geometry" />
        </mxCell>
        <mxCell id="uo-10ayTKZHPtu82tJUw-222" value="" style="group" parent="1" vertex="1" connectable="0">
          <mxGeometry x="235" y="2533" width="390" height="80" as="geometry" />
        </mxCell>
        <mxCell id="uo-10ayTKZHPtu82tJUw-223" style="edgeStyle=orthogonalEdgeStyle;rounded=0;orthogonalLoop=1;jettySize=auto;html=1;exitX=1;exitY=0.5;exitDx=0;exitDy=0;entryX=0;entryY=0.5;entryDx=0;entryDy=0;" parent="uo-10ayTKZHPtu82tJUw-222" source="uo-10ayTKZHPtu82tJUw-225" target="uo-10ayTKZHPtu82tJUw-226" edge="1">
          <mxGeometry relative="1" as="geometry" />
        </mxCell>
        <mxCell id="uo-10ayTKZHPtu82tJUw-224" value="Deleted" style="edgeLabel;html=1;align=center;verticalAlign=middle;resizable=0;points=[];" parent="uo-10ayTKZHPtu82tJUw-223" vertex="1" connectable="0">
          <mxGeometry x="-0.0196" y="-4" relative="1" as="geometry">
            <mxPoint x="2" y="-14" as="offset" />
          </mxGeometry>
        </mxCell>
        <mxCell id="uo-10ayTKZHPtu82tJUw-225" value="" style="ellipse;whiteSpace=wrap;html=1;aspect=fixed;strokeWidth=3;" parent="uo-10ayTKZHPtu82tJUw-222" vertex="1">
          <mxGeometry width="80" height="80" as="geometry" />
        </mxCell>
        <mxCell id="uo-10ayTKZHPtu82tJUw-226" value="" style="ellipse;whiteSpace=wrap;html=1;aspect=fixed;fillColor=#f8cecc;strokeColor=#b85450;strokeWidth=1;dashed=1;dashPattern=8 8;" parent="uo-10ayTKZHPtu82tJUw-222" vertex="1">
          <mxGeometry x="310" width="80" height="80" as="geometry" />
        </mxCell>
        <mxCell id="uo-10ayTKZHPtu82tJUw-227" value="" style="group" parent="1" vertex="1" connectable="0">
          <mxGeometry x="235" y="2620" width="390" height="80" as="geometry" />
        </mxCell>
        <mxCell id="uo-10ayTKZHPtu82tJUw-228" style="edgeStyle=orthogonalEdgeStyle;rounded=0;orthogonalLoop=1;jettySize=auto;html=1;exitX=1;exitY=0.5;exitDx=0;exitDy=0;entryX=0;entryY=0.5;entryDx=0;entryDy=0;" parent="uo-10ayTKZHPtu82tJUw-227" source="uo-10ayTKZHPtu82tJUw-230" target="uo-10ayTKZHPtu82tJUw-231" edge="1">
          <mxGeometry relative="1" as="geometry" />
        </mxCell>
        <mxCell id="uo-10ayTKZHPtu82tJUw-229" value="Deleted" style="edgeLabel;html=1;align=center;verticalAlign=middle;resizable=0;points=[];" parent="uo-10ayTKZHPtu82tJUw-228" vertex="1" connectable="0">
          <mxGeometry x="-0.0196" y="-4" relative="1" as="geometry">
            <mxPoint x="2" y="-14" as="offset" />
          </mxGeometry>
        </mxCell>
        <mxCell id="uo-10ayTKZHPtu82tJUw-230" value="" style="ellipse;whiteSpace=wrap;html=1;aspect=fixed;strokeWidth=3;" parent="uo-10ayTKZHPtu82tJUw-227" vertex="1">
          <mxGeometry width="80" height="80" as="geometry" />
        </mxCell>
        <mxCell id="uo-10ayTKZHPtu82tJUw-231" value="" style="ellipse;whiteSpace=wrap;html=1;aspect=fixed;fillColor=#f8cecc;strokeColor=#b85450;strokeWidth=1;dashed=1;dashPattern=8 8;" parent="uo-10ayTKZHPtu82tJUw-227" vertex="1">
          <mxGeometry x="310" width="80" height="80" as="geometry" />
        </mxCell>
        <mxCell id="E1fchaFNeBBuX5VkqnlP-1" value="&lt;b&gt;3-line/block diff format (revised)&lt;/b&gt;" style="rounded=1;whiteSpace=wrap;html=1;verticalAlign=top;" vertex="1" parent="1">
          <mxGeometry x="850" y="1480" width="610" height="1290" as="geometry" />
        </mxCell>
        <mxCell id="E1fchaFNeBBuX5VkqnlP-2" value="" style="line;strokeWidth=2;html=1;" vertex="1" parent="1">
          <mxGeometry x="935" y="1804" width="440" height="10" as="geometry" />
        </mxCell>
        <mxCell id="E1fchaFNeBBuX5VkqnlP-3" value="" style="line;strokeWidth=2;html=1;" vertex="1" parent="1">
          <mxGeometry x="935" y="2407" width="440" height="10" as="geometry" />
        </mxCell>
        <mxCell id="E1fchaFNeBBuX5VkqnlP-4" value="" style="line;strokeWidth=2;html=1;" vertex="1" parent="1">
          <mxGeometry x="935" y="2106" width="440" height="10" as="geometry" />
        </mxCell>
        <mxCell id="E1fchaFNeBBuX5VkqnlP-5" value="" style="group" vertex="1" connectable="0" parent="1">
          <mxGeometry x="960" y="1530" width="390" height="80" as="geometry" />
        </mxCell>
        <mxCell id="E1fchaFNeBBuX5VkqnlP-6" value="" style="ellipse;whiteSpace=wrap;html=1;aspect=fixed;dashed=1;dashPattern=8 8;" vertex="1" parent="E1fchaFNeBBuX5VkqnlP-5">
          <mxGeometry width="80" height="80" as="geometry" />
        </mxCell>
        <mxCell id="E1fchaFNeBBuX5VkqnlP-7" style="edgeStyle=orthogonalEdgeStyle;rounded=0;orthogonalLoop=1;jettySize=auto;html=1;exitX=1;exitY=0.5;exitDx=0;exitDy=0;entryX=0;entryY=0.5;entryDx=0;entryDy=0;" edge="1" parent="E1fchaFNeBBuX5VkqnlP-5" source="E1fchaFNeBBuX5VkqnlP-6" target="E1fchaFNeBBuX5VkqnlP-9">
          <mxGeometry relative="1" as="geometry" />
        </mxCell>
        <mxCell id="E1fchaFNeBBuX5VkqnlP-8" value="Added" style="edgeLabel;html=1;align=center;verticalAlign=middle;resizable=0;points=[];" vertex="1" connectable="0" parent="E1fchaFNeBBuX5VkqnlP-7">
          <mxGeometry x="0.1211" y="1" relative="1" as="geometry">
            <mxPoint x="-4" y="-9" as="offset" />
          </mxGeometry>
        </mxCell>
        <mxCell id="E1fchaFNeBBuX5VkqnlP-9" value="" style="ellipse;whiteSpace=wrap;html=1;aspect=fixed;fillColor=#d5e8d4;strokeColor=#82b366;strokeWidth=3;" vertex="1" parent="E1fchaFNeBBuX5VkqnlP-5">
          <mxGeometry x="310" width="80" height="80" as="geometry" />
        </mxCell>
        <mxCell id="E1fchaFNeBBuX5VkqnlP-10" value="" style="group" vertex="1" connectable="0" parent="1">
          <mxGeometry x="960" y="1623" width="390" height="80" as="geometry" />
        </mxCell>
        <mxCell id="E1fchaFNeBBuX5VkqnlP-11" value="" style="ellipse;whiteSpace=wrap;html=1;aspect=fixed;dashed=1;dashPattern=8 8;" vertex="1" parent="E1fchaFNeBBuX5VkqnlP-10">
          <mxGeometry width="80" height="80" as="geometry" />
        </mxCell>
        <mxCell id="E1fchaFNeBBuX5VkqnlP-12" style="edgeStyle=orthogonalEdgeStyle;rounded=0;orthogonalLoop=1;jettySize=auto;html=1;exitX=1;exitY=0.5;exitDx=0;exitDy=0;entryX=0;entryY=0.5;entryDx=0;entryDy=0;" edge="1" parent="E1fchaFNeBBuX5VkqnlP-10" source="E1fchaFNeBBuX5VkqnlP-11" target="E1fchaFNeBBuX5VkqnlP-14">
          <mxGeometry relative="1" as="geometry" />
        </mxCell>
        <mxCell id="E1fchaFNeBBuX5VkqnlP-13" value="Added" style="edgeLabel;html=1;align=center;verticalAlign=middle;resizable=0;points=[];" vertex="1" connectable="0" parent="E1fchaFNeBBuX5VkqnlP-12">
          <mxGeometry x="0.1211" y="1" relative="1" as="geometry">
            <mxPoint x="-4" y="-9" as="offset" />
          </mxGeometry>
        </mxCell>
        <mxCell id="E1fchaFNeBBuX5VkqnlP-14" value="" style="ellipse;whiteSpace=wrap;html=1;aspect=fixed;fillColor=#d5e8d4;strokeColor=#82b366;strokeWidth=3;" vertex="1" parent="E1fchaFNeBBuX5VkqnlP-10">
          <mxGeometry x="310" width="80" height="80" as="geometry" />
        </mxCell>
        <mxCell id="E1fchaFNeBBuX5VkqnlP-15" value="" style="group" vertex="1" connectable="0" parent="1">
          <mxGeometry x="960" y="1717" width="390" height="80" as="geometry" />
        </mxCell>
        <mxCell id="E1fchaFNeBBuX5VkqnlP-16" value="" style="ellipse;whiteSpace=wrap;html=1;aspect=fixed;dashed=1;dashPattern=8 8;" vertex="1" parent="E1fchaFNeBBuX5VkqnlP-15">
          <mxGeometry width="80" height="80" as="geometry" />
        </mxCell>
        <mxCell id="E1fchaFNeBBuX5VkqnlP-17" style="edgeStyle=orthogonalEdgeStyle;rounded=0;orthogonalLoop=1;jettySize=auto;html=1;exitX=1;exitY=0.5;exitDx=0;exitDy=0;entryX=0;entryY=0.5;entryDx=0;entryDy=0;" edge="1" parent="E1fchaFNeBBuX5VkqnlP-15" source="E1fchaFNeBBuX5VkqnlP-16" target="E1fchaFNeBBuX5VkqnlP-19">
          <mxGeometry relative="1" as="geometry" />
        </mxCell>
        <mxCell id="E1fchaFNeBBuX5VkqnlP-18" value="Added" style="edgeLabel;html=1;align=center;verticalAlign=middle;resizable=0;points=[];" vertex="1" connectable="0" parent="E1fchaFNeBBuX5VkqnlP-17">
          <mxGeometry x="0.1211" y="1" relative="1" as="geometry">
            <mxPoint x="-4" y="-9" as="offset" />
          </mxGeometry>
        </mxCell>
        <mxCell id="E1fchaFNeBBuX5VkqnlP-19" value="" style="ellipse;whiteSpace=wrap;html=1;aspect=fixed;fillColor=#d5e8d4;strokeColor=#82b366;strokeWidth=3;" vertex="1" parent="E1fchaFNeBBuX5VkqnlP-15">
          <mxGeometry x="310" width="80" height="80" as="geometry" />
        </mxCell>
        <mxCell id="E1fchaFNeBBuX5VkqnlP-20" value="" style="group" vertex="1" connectable="0" parent="1">
          <mxGeometry x="960" y="1845" width="390" height="80" as="geometry" />
        </mxCell>
        <mxCell id="E1fchaFNeBBuX5VkqnlP-21" value="" style="ellipse;whiteSpace=wrap;html=1;aspect=fixed;dashed=1;dashPattern=8 8;" vertex="1" parent="E1fchaFNeBBuX5VkqnlP-20">
          <mxGeometry width="80" height="80" as="geometry" />
        </mxCell>
        <mxCell id="E1fchaFNeBBuX5VkqnlP-24" value="" style="ellipse;whiteSpace=wrap;html=1;aspect=fixed;fillColor=#d5e8d4;strokeColor=#82b366;strokeWidth=3;" vertex="1" parent="E1fchaFNeBBuX5VkqnlP-20">
          <mxGeometry x="310" width="80" height="80" as="geometry" />
        </mxCell>
        <mxCell id="E1fchaFNeBBuX5VkqnlP-25" value="" style="group" vertex="1" connectable="0" parent="1">
          <mxGeometry x="960" y="1932" width="390" height="80" as="geometry" />
        </mxCell>
        <mxCell id="E1fchaFNeBBuX5VkqnlP-26" value="" style="ellipse;whiteSpace=wrap;html=1;aspect=fixed;dashed=1;dashPattern=8 8;" vertex="1" parent="E1fchaFNeBBuX5VkqnlP-25">
          <mxGeometry width="80" height="80" as="geometry" />
        </mxCell>
        <mxCell id="E1fchaFNeBBuX5VkqnlP-29" value="" style="ellipse;whiteSpace=wrap;html=1;aspect=fixed;fillColor=#d5e8d4;strokeColor=#82b366;strokeWidth=3;" vertex="1" parent="E1fchaFNeBBuX5VkqnlP-25">
          <mxGeometry x="310" width="80" height="80" as="geometry" />
        </mxCell>
        <mxCell id="E1fchaFNeBBuX5VkqnlP-30" value="" style="group" vertex="1" connectable="0" parent="1">
          <mxGeometry x="960" y="2147" width="390" height="80" as="geometry" />
        </mxCell>
        <mxCell id="E1fchaFNeBBuX5VkqnlP-31" value="" style="ellipse;whiteSpace=wrap;html=1;aspect=fixed;dashed=1;dashPattern=8 8;" vertex="1" parent="E1fchaFNeBBuX5VkqnlP-30">
          <mxGeometry width="80" height="80" as="geometry" />
        </mxCell>
        <mxCell id="E1fchaFNeBBuX5VkqnlP-34" value="" style="ellipse;whiteSpace=wrap;html=1;aspect=fixed;fillColor=#d5e8d4;strokeColor=#82b366;strokeWidth=3;" vertex="1" parent="E1fchaFNeBBuX5VkqnlP-30">
          <mxGeometry x="310" width="80" height="80" as="geometry" />
        </mxCell>
        <mxCell id="E1fchaFNeBBuX5VkqnlP-35" value="" style="group" vertex="1" connectable="0" parent="1">
          <mxGeometry x="960" y="2019" width="390" height="80" as="geometry" />
        </mxCell>
        <mxCell id="E1fchaFNeBBuX5VkqnlP-38" value="" style="ellipse;whiteSpace=wrap;html=1;aspect=fixed;strokeWidth=3;" vertex="1" parent="E1fchaFNeBBuX5VkqnlP-35">
          <mxGeometry width="80" height="80" as="geometry" />
        </mxCell>
        <mxCell id="E1fchaFNeBBuX5VkqnlP-39" value="" style="ellipse;whiteSpace=wrap;html=1;aspect=fixed;fillColor=#f8cecc;strokeColor=#b85450;strokeWidth=1;dashed=1;dashPattern=8 8;" vertex="1" parent="E1fchaFNeBBuX5VkqnlP-35">
          <mxGeometry x="310" width="80" height="80" as="geometry" />
        </mxCell>
        <mxCell id="E1fchaFNeBBuX5VkqnlP-40" value="" style="group" vertex="1" connectable="0" parent="1">
          <mxGeometry x="960" y="2234" width="390" height="80" as="geometry" />
        </mxCell>
        <mxCell id="E1fchaFNeBBuX5VkqnlP-43" value="" style="ellipse;whiteSpace=wrap;html=1;aspect=fixed;strokeWidth=3;" vertex="1" parent="E1fchaFNeBBuX5VkqnlP-40">
          <mxGeometry width="80" height="80" as="geometry" />
        </mxCell>
        <mxCell id="E1fchaFNeBBuX5VkqnlP-44" value="" style="ellipse;whiteSpace=wrap;html=1;aspect=fixed;fillColor=#f8cecc;strokeColor=#b85450;strokeWidth=1;dashed=1;dashPattern=8 8;" vertex="1" parent="E1fchaFNeBBuX5VkqnlP-40">
          <mxGeometry x="310" width="80" height="80" as="geometry" />
        </mxCell>
        <mxCell id="E1fchaFNeBBuX5VkqnlP-45" value="" style="group" vertex="1" connectable="0" parent="1">
          <mxGeometry x="960" y="2320" width="390" height="80" as="geometry" />
        </mxCell>
        <mxCell id="E1fchaFNeBBuX5VkqnlP-48" value="" style="ellipse;whiteSpace=wrap;html=1;aspect=fixed;strokeWidth=3;" vertex="1" parent="E1fchaFNeBBuX5VkqnlP-45">
          <mxGeometry width="80" height="80" as="geometry" />
        </mxCell>
        <mxCell id="E1fchaFNeBBuX5VkqnlP-49" value="" style="ellipse;whiteSpace=wrap;html=1;aspect=fixed;fillColor=#f8cecc;strokeColor=#b85450;strokeWidth=1;dashed=1;dashPattern=8 8;" vertex="1" parent="E1fchaFNeBBuX5VkqnlP-45">
          <mxGeometry x="310" width="80" height="80" as="geometry" />
        </mxCell>
        <mxCell id="E1fchaFNeBBuX5VkqnlP-50" value="" style="group" vertex="1" connectable="0" parent="1">
          <mxGeometry x="960" y="2448" width="390" height="80" as="geometry" />
        </mxCell>
        <mxCell id="E1fchaFNeBBuX5VkqnlP-51" style="edgeStyle=orthogonalEdgeStyle;rounded=0;orthogonalLoop=1;jettySize=auto;html=1;exitX=1;exitY=0.5;exitDx=0;exitDy=0;entryX=0;entryY=0.5;entryDx=0;entryDy=0;" edge="1" parent="E1fchaFNeBBuX5VkqnlP-50" source="E1fchaFNeBBuX5VkqnlP-53" target="E1fchaFNeBBuX5VkqnlP-54">
          <mxGeometry relative="1" as="geometry" />
        </mxCell>
        <mxCell id="E1fchaFNeBBuX5VkqnlP-52" value="Deleted" style="edgeLabel;html=1;align=center;verticalAlign=middle;resizable=0;points=[];" vertex="1" connectable="0" parent="E1fchaFNeBBuX5VkqnlP-51">
          <mxGeometry x="-0.0196" y="-4" relative="1" as="geometry">
            <mxPoint x="2" y="-14" as="offset" />
          </mxGeometry>
        </mxCell>
        <mxCell id="E1fchaFNeBBuX5VkqnlP-53" value="" style="ellipse;whiteSpace=wrap;html=1;aspect=fixed;strokeWidth=3;" vertex="1" parent="E1fchaFNeBBuX5VkqnlP-50">
          <mxGeometry width="80" height="80" as="geometry" />
        </mxCell>
        <mxCell id="E1fchaFNeBBuX5VkqnlP-54" value="" style="ellipse;whiteSpace=wrap;html=1;aspect=fixed;fillColor=#f8cecc;strokeColor=#b85450;strokeWidth=1;dashed=1;dashPattern=8 8;" vertex="1" parent="E1fchaFNeBBuX5VkqnlP-50">
          <mxGeometry x="310" width="80" height="80" as="geometry" />
        </mxCell>
        <mxCell id="E1fchaFNeBBuX5VkqnlP-55" value="" style="group" vertex="1" connectable="0" parent="1">
          <mxGeometry x="960" y="2533" width="390" height="80" as="geometry" />
        </mxCell>
        <mxCell id="E1fchaFNeBBuX5VkqnlP-56" style="edgeStyle=orthogonalEdgeStyle;rounded=0;orthogonalLoop=1;jettySize=auto;html=1;exitX=1;exitY=0.5;exitDx=0;exitDy=0;entryX=0;entryY=0.5;entryDx=0;entryDy=0;" edge="1" parent="E1fchaFNeBBuX5VkqnlP-55" source="E1fchaFNeBBuX5VkqnlP-58" target="E1fchaFNeBBuX5VkqnlP-59">
          <mxGeometry relative="1" as="geometry" />
        </mxCell>
        <mxCell id="E1fchaFNeBBuX5VkqnlP-57" value="Deleted" style="edgeLabel;html=1;align=center;verticalAlign=middle;resizable=0;points=[];" vertex="1" connectable="0" parent="E1fchaFNeBBuX5VkqnlP-56">
          <mxGeometry x="-0.0196" y="-4" relative="1" as="geometry">
            <mxPoint x="2" y="-14" as="offset" />
          </mxGeometry>
        </mxCell>
        <mxCell id="E1fchaFNeBBuX5VkqnlP-58" value="" style="ellipse;whiteSpace=wrap;html=1;aspect=fixed;strokeWidth=3;" vertex="1" parent="E1fchaFNeBBuX5VkqnlP-55">
          <mxGeometry width="80" height="80" as="geometry" />
        </mxCell>
        <mxCell id="E1fchaFNeBBuX5VkqnlP-59" value="" style="ellipse;whiteSpace=wrap;html=1;aspect=fixed;fillColor=#f8cecc;strokeColor=#b85450;strokeWidth=1;dashed=1;dashPattern=8 8;" vertex="1" parent="E1fchaFNeBBuX5VkqnlP-55">
          <mxGeometry x="310" width="80" height="80" as="geometry" />
        </mxCell>
        <mxCell id="E1fchaFNeBBuX5VkqnlP-60" value="" style="group" vertex="1" connectable="0" parent="1">
          <mxGeometry x="960" y="2620" width="390" height="80" as="geometry" />
        </mxCell>
        <mxCell id="E1fchaFNeBBuX5VkqnlP-61" style="edgeStyle=orthogonalEdgeStyle;rounded=0;orthogonalLoop=1;jettySize=auto;html=1;exitX=1;exitY=0.5;exitDx=0;exitDy=0;entryX=0;entryY=0.5;entryDx=0;entryDy=0;" edge="1" parent="E1fchaFNeBBuX5VkqnlP-60" source="E1fchaFNeBBuX5VkqnlP-63" target="E1fchaFNeBBuX5VkqnlP-64">
          <mxGeometry relative="1" as="geometry" />
        </mxCell>
        <mxCell id="E1fchaFNeBBuX5VkqnlP-62" value="Deleted" style="edgeLabel;html=1;align=center;verticalAlign=middle;resizable=0;points=[];" vertex="1" connectable="0" parent="E1fchaFNeBBuX5VkqnlP-61">
          <mxGeometry x="-0.0196" y="-4" relative="1" as="geometry">
            <mxPoint x="2" y="-14" as="offset" />
          </mxGeometry>
        </mxCell>
        <mxCell id="E1fchaFNeBBuX5VkqnlP-63" value="" style="ellipse;whiteSpace=wrap;html=1;aspect=fixed;strokeWidth=3;" vertex="1" parent="E1fchaFNeBBuX5VkqnlP-60">
          <mxGeometry width="80" height="80" as="geometry" />
        </mxCell>
        <mxCell id="E1fchaFNeBBuX5VkqnlP-64" value="" style="ellipse;whiteSpace=wrap;html=1;aspect=fixed;fillColor=#f8cecc;strokeColor=#b85450;strokeWidth=1;dashed=1;dashPattern=8 8;" vertex="1" parent="E1fchaFNeBBuX5VkqnlP-60">
          <mxGeometry x="310" width="80" height="80" as="geometry" />
        </mxCell>
        <mxCell id="E1fchaFNeBBuX5VkqnlP-41" style="rounded=0;orthogonalLoop=1;jettySize=auto;html=1;exitX=1;exitY=0.5;exitDx=0;exitDy=0;entryX=0;entryY=0.5;entryDx=0;entryDy=0;" edge="1" parent="1" source="E1fchaFNeBBuX5VkqnlP-43" target="E1fchaFNeBBuX5VkqnlP-34">
          <mxGeometry relative="1" as="geometry" />
        </mxCell>
        <mxCell id="E1fchaFNeBBuX5VkqnlP-42" value="&lt;div&gt;Merged&lt;/div&gt;" style="edgeLabel;html=1;align=center;verticalAlign=middle;resizable=0;points=[];" vertex="1" connectable="0" parent="E1fchaFNeBBuX5VkqnlP-41">
          <mxGeometry x="-0.0196" y="-4" relative="1" as="geometry">
            <mxPoint x="2" y="-14" as="offset" />
          </mxGeometry>
        </mxCell>
        <mxCell id="E1fchaFNeBBuX5VkqnlP-46" style="rounded=0;orthogonalLoop=1;jettySize=auto;html=1;exitX=1;exitY=0.5;exitDx=0;exitDy=0;entryX=0;entryY=0.5;entryDx=0;entryDy=0;" edge="1" parent="1" source="E1fchaFNeBBuX5VkqnlP-48" target="E1fchaFNeBBuX5VkqnlP-34">
          <mxGeometry relative="1" as="geometry" />
        </mxCell>
        <mxCell id="E1fchaFNeBBuX5VkqnlP-47" value="&lt;div&gt;Merged&lt;/div&gt;" style="edgeLabel;html=1;align=center;verticalAlign=middle;resizable=0;points=[];" vertex="1" connectable="0" parent="E1fchaFNeBBuX5VkqnlP-46">
          <mxGeometry x="-0.0196" y="-4" relative="1" as="geometry">
            <mxPoint x="2" y="-14" as="offset" />
          </mxGeometry>
        </mxCell>
        <mxCell id="E1fchaFNeBBuX5VkqnlP-36" style="rounded=0;orthogonalLoop=1;jettySize=auto;html=1;exitX=1;exitY=0.5;exitDx=0;exitDy=0;entryX=0;entryY=0.5;entryDx=0;entryDy=0;" edge="1" parent="1" source="E1fchaFNeBBuX5VkqnlP-38" target="E1fchaFNeBBuX5VkqnlP-29">
          <mxGeometry relative="1" as="geometry" />
        </mxCell>
        <mxCell id="E1fchaFNeBBuX5VkqnlP-37" value="Split" style="edgeLabel;html=1;align=center;verticalAlign=middle;resizable=0;points=[];" vertex="1" connectable="0" parent="E1fchaFNeBBuX5VkqnlP-36">
          <mxGeometry x="-0.0196" y="-4" relative="1" as="geometry">
            <mxPoint x="2" y="-14" as="offset" />
          </mxGeometry>
        </mxCell>
        <mxCell id="E1fchaFNeBBuX5VkqnlP-67" style="rounded=0;orthogonalLoop=1;jettySize=auto;html=1;exitX=1;exitY=0.5;exitDx=0;exitDy=0;entryX=0;entryY=0.5;entryDx=0;entryDy=0;" edge="1" parent="1" source="E1fchaFNeBBuX5VkqnlP-38" target="E1fchaFNeBBuX5VkqnlP-24">
          <mxGeometry relative="1" as="geometry" />
        </mxCell>
        <mxCell id="E1fchaFNeBBuX5VkqnlP-70" value="Split" style="edgeLabel;html=1;align=center;verticalAlign=middle;resizable=0;points=[];" vertex="1" connectable="0" parent="E1fchaFNeBBuX5VkqnlP-67">
          <mxGeometry x="0.0275" y="1" relative="1" as="geometry">
            <mxPoint as="offset" />
          </mxGeometry>
        </mxCell>
        <mxCell id="E1fchaFNeBBuX5VkqnlP-71" value="&lt;b&gt;2-line/block diff format (revised)&lt;/b&gt;" style="rounded=1;whiteSpace=wrap;html=1;verticalAlign=top;" vertex="1" parent="1">
          <mxGeometry x="860" y="530" width="610" height="800" as="geometry" />
        </mxCell>
        <mxCell id="E1fchaFNeBBuX5VkqnlP-72" value="" style="line;strokeWidth=2;html=1;" vertex="1" parent="1">
          <mxGeometry x="925" y="791" width="440" height="10" as="geometry" />
        </mxCell>
        <mxCell id="E1fchaFNeBBuX5VkqnlP-73" value="" style="line;strokeWidth=2;html=1;" vertex="1" parent="1">
          <mxGeometry x="925" y="1072" width="440" height="10" as="geometry" />
        </mxCell>
        <mxCell id="E1fchaFNeBBuX5VkqnlP-74" value="" style="group" vertex="1" connectable="0" parent="1">
          <mxGeometry x="950" y="580" width="390" height="80" as="geometry" />
        </mxCell>
        <mxCell id="E1fchaFNeBBuX5VkqnlP-75" value="" style="ellipse;whiteSpace=wrap;html=1;aspect=fixed;dashed=1;dashPattern=8 8;" vertex="1" parent="E1fchaFNeBBuX5VkqnlP-74">
          <mxGeometry width="80" height="80" as="geometry" />
        </mxCell>
        <mxCell id="E1fchaFNeBBuX5VkqnlP-76" value="" style="ellipse;whiteSpace=wrap;html=1;aspect=fixed;fillColor=#d5e8d4;strokeColor=#82b366;strokeWidth=3;" vertex="1" parent="E1fchaFNeBBuX5VkqnlP-74">
          <mxGeometry x="310" width="80" height="80" as="geometry" />
        </mxCell>
        <mxCell id="E1fchaFNeBBuX5VkqnlP-77" style="edgeStyle=orthogonalEdgeStyle;rounded=0;orthogonalLoop=1;jettySize=auto;html=1;exitX=1;exitY=0.5;exitDx=0;exitDy=0;entryX=0;entryY=0.5;entryDx=0;entryDy=0;" edge="1" parent="E1fchaFNeBBuX5VkqnlP-74" source="E1fchaFNeBBuX5VkqnlP-75" target="E1fchaFNeBBuX5VkqnlP-76">
          <mxGeometry relative="1" as="geometry" />
        </mxCell>
        <mxCell id="E1fchaFNeBBuX5VkqnlP-78" value="Added" style="edgeLabel;html=1;align=center;verticalAlign=middle;resizable=0;points=[];" vertex="1" connectable="0" parent="E1fchaFNeBBuX5VkqnlP-77">
          <mxGeometry x="-0.029" y="5" relative="1" as="geometry">
            <mxPoint x="13" y="-5" as="offset" />
          </mxGeometry>
        </mxCell>
        <mxCell id="E1fchaFNeBBuX5VkqnlP-79" value="" style="group" vertex="1" connectable="0" parent="1">
          <mxGeometry x="950" y="683" width="390" height="80" as="geometry" />
        </mxCell>
        <mxCell id="E1fchaFNeBBuX5VkqnlP-80" value="" style="ellipse;whiteSpace=wrap;html=1;aspect=fixed;dashed=1;dashPattern=8 8;" vertex="1" parent="E1fchaFNeBBuX5VkqnlP-79">
          <mxGeometry width="80" height="80" as="geometry" />
        </mxCell>
        <mxCell id="E1fchaFNeBBuX5VkqnlP-81" style="edgeStyle=orthogonalEdgeStyle;rounded=0;orthogonalLoop=1;jettySize=auto;html=1;exitX=1;exitY=0.5;exitDx=0;exitDy=0;entryX=0;entryY=0.5;entryDx=0;entryDy=0;" edge="1" parent="E1fchaFNeBBuX5VkqnlP-79" source="E1fchaFNeBBuX5VkqnlP-80" target="E1fchaFNeBBuX5VkqnlP-83">
          <mxGeometry relative="1" as="geometry" />
        </mxCell>
        <mxCell id="E1fchaFNeBBuX5VkqnlP-82" value="Added" style="edgeLabel;html=1;align=center;verticalAlign=middle;resizable=0;points=[];" vertex="1" connectable="0" parent="E1fchaFNeBBuX5VkqnlP-81">
          <mxGeometry x="0.1211" y="1" relative="1" as="geometry">
            <mxPoint x="-4" y="-9" as="offset" />
          </mxGeometry>
        </mxCell>
        <mxCell id="E1fchaFNeBBuX5VkqnlP-83" value="" style="ellipse;whiteSpace=wrap;html=1;aspect=fixed;fillColor=#d5e8d4;strokeColor=#82b366;strokeWidth=3;" vertex="1" parent="E1fchaFNeBBuX5VkqnlP-79">
          <mxGeometry x="310" width="80" height="80" as="geometry" />
        </mxCell>
        <mxCell id="E1fchaFNeBBuX5VkqnlP-84" value="" style="group" vertex="1" connectable="0" parent="1">
          <mxGeometry x="950" y="855" width="390" height="80" as="geometry" />
        </mxCell>
        <mxCell id="E1fchaFNeBBuX5VkqnlP-85" value="" style="ellipse;whiteSpace=wrap;html=1;aspect=fixed;dashed=1;dashPattern=8 8;" vertex="1" parent="E1fchaFNeBBuX5VkqnlP-84">
          <mxGeometry width="80" height="80" as="geometry" />
        </mxCell>
        <mxCell id="E1fchaFNeBBuX5VkqnlP-86" value="" style="ellipse;whiteSpace=wrap;html=1;aspect=fixed;fillColor=#d5e8d4;strokeColor=#82b366;strokeWidth=3;" vertex="1" parent="E1fchaFNeBBuX5VkqnlP-84">
          <mxGeometry x="310" width="80" height="80" as="geometry" />
        </mxCell>
        <mxCell id="E1fchaFNeBBuX5VkqnlP-89" value="" style="group" vertex="1" connectable="0" parent="1">
          <mxGeometry x="950" y="963" width="390" height="80" as="geometry" />
        </mxCell>
        <mxCell id="E1fchaFNeBBuX5VkqnlP-92" value="" style="ellipse;whiteSpace=wrap;html=1;aspect=fixed;strokeWidth=3;" vertex="1" parent="E1fchaFNeBBuX5VkqnlP-89">
          <mxGeometry width="80" height="80" as="geometry" />
        </mxCell>
        <mxCell id="E1fchaFNeBBuX5VkqnlP-93" value="" style="ellipse;whiteSpace=wrap;html=1;aspect=fixed;fillColor=#f8cecc;strokeColor=#b85450;strokeWidth=1;dashed=1;dashPattern=8 8;" vertex="1" parent="E1fchaFNeBBuX5VkqnlP-89">
          <mxGeometry x="310" width="80" height="80" as="geometry" />
        </mxCell>
        <mxCell id="E1fchaFNeBBuX5VkqnlP-94" value="" style="group" vertex="1" connectable="0" parent="1">
          <mxGeometry x="950" y="1110" width="390" height="80" as="geometry" />
        </mxCell>
        <mxCell id="E1fchaFNeBBuX5VkqnlP-95" style="edgeStyle=orthogonalEdgeStyle;rounded=0;orthogonalLoop=1;jettySize=auto;html=1;exitX=1;exitY=0.5;exitDx=0;exitDy=0;entryX=0;entryY=0.5;entryDx=0;entryDy=0;" edge="1" parent="E1fchaFNeBBuX5VkqnlP-94" source="E1fchaFNeBBuX5VkqnlP-97" target="E1fchaFNeBBuX5VkqnlP-98">
          <mxGeometry relative="1" as="geometry" />
        </mxCell>
        <mxCell id="E1fchaFNeBBuX5VkqnlP-96" value="Deleted" style="edgeLabel;html=1;align=center;verticalAlign=middle;resizable=0;points=[];" vertex="1" connectable="0" parent="E1fchaFNeBBuX5VkqnlP-95">
          <mxGeometry x="-0.0196" y="-4" relative="1" as="geometry">
            <mxPoint x="2" y="-14" as="offset" />
          </mxGeometry>
        </mxCell>
        <mxCell id="E1fchaFNeBBuX5VkqnlP-97" value="" style="ellipse;whiteSpace=wrap;html=1;aspect=fixed;strokeWidth=3;" vertex="1" parent="E1fchaFNeBBuX5VkqnlP-94">
          <mxGeometry width="80" height="80" as="geometry" />
        </mxCell>
        <mxCell id="E1fchaFNeBBuX5VkqnlP-98" value="" style="ellipse;whiteSpace=wrap;html=1;aspect=fixed;fillColor=#f8cecc;strokeColor=#b85450;strokeWidth=1;dashed=1;dashPattern=8 8;" vertex="1" parent="E1fchaFNeBBuX5VkqnlP-94">
          <mxGeometry x="310" width="80" height="80" as="geometry" />
        </mxCell>
        <mxCell id="E1fchaFNeBBuX5VkqnlP-99" value="" style="group" vertex="1" connectable="0" parent="1">
          <mxGeometry x="950" y="1210" width="390" height="80" as="geometry" />
        </mxCell>
        <mxCell id="E1fchaFNeBBuX5VkqnlP-100" style="edgeStyle=orthogonalEdgeStyle;rounded=0;orthogonalLoop=1;jettySize=auto;html=1;exitX=1;exitY=0.5;exitDx=0;exitDy=0;entryX=0;entryY=0.5;entryDx=0;entryDy=0;" edge="1" parent="E1fchaFNeBBuX5VkqnlP-99" source="E1fchaFNeBBuX5VkqnlP-102" target="E1fchaFNeBBuX5VkqnlP-103">
          <mxGeometry relative="1" as="geometry" />
        </mxCell>
        <mxCell id="E1fchaFNeBBuX5VkqnlP-101" value="Deleted" style="edgeLabel;html=1;align=center;verticalAlign=middle;resizable=0;points=[];" vertex="1" connectable="0" parent="E1fchaFNeBBuX5VkqnlP-100">
          <mxGeometry x="-0.0196" y="-4" relative="1" as="geometry">
            <mxPoint x="2" y="-14" as="offset" />
          </mxGeometry>
        </mxCell>
        <mxCell id="E1fchaFNeBBuX5VkqnlP-102" value="" style="ellipse;whiteSpace=wrap;html=1;aspect=fixed;strokeWidth=3;" vertex="1" parent="E1fchaFNeBBuX5VkqnlP-99">
          <mxGeometry width="80" height="80" as="geometry" />
        </mxCell>
        <mxCell id="E1fchaFNeBBuX5VkqnlP-103" value="" style="ellipse;whiteSpace=wrap;html=1;aspect=fixed;fillColor=#f8cecc;strokeColor=#b85450;strokeWidth=1;dashed=1;dashPattern=8 8;" vertex="1" parent="E1fchaFNeBBuX5VkqnlP-99">
          <mxGeometry x="310" width="80" height="80" as="geometry" />
        </mxCell>
        <mxCell id="E1fchaFNeBBuX5VkqnlP-90" style="rounded=0;orthogonalLoop=1;jettySize=auto;html=1;exitX=1;exitY=0.5;exitDx=0;exitDy=0;entryX=0;entryY=0.5;entryDx=0;entryDy=0;" edge="1" parent="1" source="E1fchaFNeBBuX5VkqnlP-92" target="E1fchaFNeBBuX5VkqnlP-86">
          <mxGeometry relative="1" as="geometry" />
        </mxCell>
        <mxCell id="E1fchaFNeBBuX5VkqnlP-91" value="Moved" style="edgeLabel;html=1;align=center;verticalAlign=middle;resizable=0;points=[];" vertex="1" connectable="0" parent="E1fchaFNeBBuX5VkqnlP-90">
          <mxGeometry x="-0.0196" y="-4" relative="1" as="geometry">
            <mxPoint x="2" y="-14" as="offset" />
          </mxGeometry>
        </mxCell>
      </root>
    </mxGraphModel>
  </diagram>
</mxfile>
